Coordinates
version=1
nRows=5
nColumns=40
inDegrees=yes

Units are S.I. units (second, meters, Newtons, ...)
Angles are in degrees.

endheader
time	pelvis_tilt	pelvis_list	pelvis_rotation	pelvis_tx	pelvis_ty	pelvis_tz	hip_flexion_r	hip_adduction_r	hip_rotation_r	knee_angle_r	knee_angle_r_beta	ankle_angle_r	subtalar_angle_r	mtp_angle_r	hip_flexion_l	hip_adduction_l	hip_rotation_l	knee_angle_l	knee_angle_l_beta	ankle_angle_l	subtalar_angle_l	mtp_angle_l	lumbar_extension	lumbar_bending	lumbar_rotation	arm_flex_r	arm_add_r	arm_rot_r	elbow_flex_r	pro_sup_r	wrist_flex_r	wrist_dev_r	arm_flex_l	arm_add_l	arm_rot_l	elbow_flex_l	pro_sup_l	wrist_flex_l	wrist_dev_l
      0.00000000	     -7.33197857	     -8.70197758	     -0.06653870	     -1.29243486	      0.87352943	      1.41273572	     35.44480480	      2.50670033	    -15.25572965	    -32.82790074	     -0.57295495	      2.78818756	     -0.34369750	     -2.46949401	     -4.41069454	      7.41353162	      8.10076420	    -13.13740623	     -0.22929099	     18.56137777	     -3.03378780	    -10.37898620	     -5.60542188	     12.37228185	     -3.89574545	      3.50844679	    -11.68232459	     16.18092512	     12.52554534	     89.95437384	      0.00000000	      0.00000000	     15.35715932	     10.19050185	    -23.33902194	     26.36450169	     89.95437384	      0.00000000	      0.00000000
      0.01000000	     -7.39286443	     -9.16011466	      0.41921141	     -1.28398781	      0.87199912	      1.41346586	     35.75790029	      2.88252228	    -15.46664216	    -31.76698853	     -0.55443854	      2.75761531	     -0.47235808	     -2.41045443	     -4.45033086	      8.03034675	      7.15735362	    -14.07770161	     -0.24570224	     19.13076303	     -2.65203293	    -10.68039982	     -5.31757347	     13.04448656	     -4.24900853	      3.35639012	    -11.72859503	     16.13745965	     12.09162353	     89.95437384	      0.00000000	      0.00000000	     15.88198965	     10.32483451	    -23.14158278	     28.57399000	     89.95437384	      0.00000000	      0.00000000
      0.02000000	     -7.50148064	     -9.44523974	      0.81195204	     -1.27507208	      0.87038086	      1.41414913	     36.09854569	      3.15615018	    -15.39160080	    -31.05607658	     -0.54203079	      2.56030649	     -1.66294931	     -2.16874965	     -4.56095151	      8.36452502	      6.05364912	    -14.72204247	     -0.25694811	     19.40791623	     -1.40122826	    -11.03997490	     -4.92042102	     13.53503446	     -4.50996985	      3.13853131	    -11.79440532	     16.02936059	     11.75350834	     89.95437384	      0.00000000	      0.00000000	     16.24107152	     10.37523595	    -22.47922483	     30.95144788	     89.95437384	      0.00000000	      0.00000000
      0.03000000	     -7.53474107	     -9.60754593	      1.08960060	     -1.26630828	      0.86901952	      1.41499652	     36.33431635	      3.38154594	    -15.27691951	    -30.57091504	     -0.53356312	      2.36408772	     -3.13160204	     -1.84147486	     -4.84098122	      8.53698154	      4.99051274	    -15.25997413	     -0.26633679	     19.67859188	     -0.00265248	    -11.24068322	     -4.73996959	     13.88482971	     -4.61048720	      3.02217636	    -11.85320792	     15.83670184	     11.49690181	     89.95437384	      0.00000000	      0.00000000	     16.67120857	     10.56508900	    -22.26924444	     33.32284354	     89.95437384	      0.00000000	      0.00000000
      0.04000000	     -7.43851901	     -9.65751951	      1.29708449	     -1.25669450	      0.86774333	      1.41593796	     36.42977854	      3.53502549	    -14.98417115	    -30.57962028	     -0.53371506	      2.49819846	     -3.59960650	     -1.73149945	     -5.30559350	      8.65805344	      4.47624414	    -15.88448975	     -0.27723665	     19.73994080	      0.32189812	    -11.16534412	     -4.59024240	     14.08978708	     -4.66919026	      2.84500580	    -11.92654697	     15.86733994	     11.30684546	     89.95437384	      0.00000000	      0.00000000	     16.84374260	     10.83823039	    -21.99052804	     35.88630288	     89.95437384	      0.00000000	      0.00000000
